<svg width="54" height="33" viewBox="0 0 54 33" fill="none" xmlns="http://www.w3.org/2000/svg">
<path d="M18.2214 28.112C18.4693 28.3599 18.666 28.6543 18.8002 28.9782C18.9344 29.3022 19.0034 29.6494 19.0034 30C19.0034 30.3506 18.9344 30.6978 18.8002 31.0218C18.666 31.3457 18.4693 31.6401 18.2214 31.888C17.9734 32.1359 17.6791 32.3326 17.3552 32.4668C17.0312 32.601 16.684 32.67 16.3334 32.67C15.9827 32.67 15.6355 32.601 15.3116 32.4668C14.9877 32.3326 14.6933 32.1359 14.4454 31.888L1.11205 18.5547C0.863709 18.307 0.66668 18.0127 0.532246 17.6887C0.397812 17.3647 0.328613 17.0174 0.328613 16.6667C0.328613 16.3159 0.397811 15.9686 0.532246 15.6446C0.66668 15.3207 0.863709 15.0264 1.11205 14.7787L14.4454 1.44534C14.6933 1.1974 14.9877 1.00073 15.3116 0.866548C15.6355 0.732366 15.9827 0.663307 16.3334 0.663306C16.684 0.663306 17.0312 0.732366 17.3552 0.866548C17.6791 1.00073 17.9734 1.1974 18.2214 1.44534C18.4693 1.69327 18.666 1.98762 18.8002 2.31156C18.9344 2.6355 19.0034 2.98271 19.0034 3.33334C19.0034 3.68397 18.9344 4.03117 18.8002 4.35512C18.666 4.67906 18.4693 4.9734 18.2214 5.22134L9.43738 14L44.5627 14L35.7787 5.22134C35.5308 4.9734 35.3341 4.67906 35.1999 4.35512C35.0657 4.03117 34.9967 3.68397 34.9967 3.33334C34.9967 2.9827 35.0657 2.6355 35.1999 2.31156C35.3341 1.98762 35.5308 1.69327 35.7787 1.44534C36.0266 1.1974 36.321 1.00073 36.6449 0.866547C36.9689 0.732365 37.3161 0.663306 37.6667 0.663306C38.0173 0.663306 38.3645 0.732365 38.6885 0.866547C39.0124 1.00073 39.3068 1.1974 39.5547 1.44534L52.888 14.7787C53.1364 15.0264 53.3334 15.3206 53.4678 15.6446C53.6023 15.9686 53.6715 16.3159 53.6715 16.6667C53.6715 17.0174 53.6023 17.3647 53.4678 17.6887C53.3334 18.0127 53.1364 18.307 52.888 18.5547L39.5547 31.888C39.3068 32.1359 39.0124 32.3326 38.6885 32.4668C38.3645 32.601 38.0173 32.67 37.6667 32.67C37.3161 32.67 36.9689 32.601 36.6449 32.4668C36.321 32.3326 36.0266 32.1359 35.7787 31.888C35.5308 31.6401 35.3341 31.3457 35.1999 31.0218C35.0657 30.6978 34.9967 30.3506 34.9967 30C34.9967 29.6494 35.0657 29.3022 35.1999 28.9782C35.3341 28.6543 35.5308 28.3599 35.7787 28.112L44.5627 19.3333L9.43738 19.3333L18.2214 28.112Z" fill="white"/>
</svg>
